<svg xmlns="http://www.w3.org/2000/svg" width="500" height="500" viewBox="0 0 500 500">
    <path class="icon-contrast-rightHalf"
          fill="#fff"
          d="M383.418 249.115c0 73.574-59.644 133.218-133.218 133.218-73.587 0-133.229-59.644-133.229-133.218 0-73.587 59.642-133.231 133.229-133.231 73.573 0 133.218 59.644 133.218 133.231z"/>
    <path class=""
          fill="#fff"
          d="M383.418 249.115h-6.774c-.003 34.939-14.141 66.505-37.034 89.409-22.902 22.892-54.472 37.031-89.41 37.034-34.944-.003-66.515-14.143-89.417-37.034-22.896-22.904-37.033-54.473-37.038-89.409.003-34.947 14.145-66.516 37.038-89.421 22.904-22.896 54.474-37.031 89.417-37.037 34.94.002 66.506 14.141 89.409 37.037 22.893 22.903 37.032 54.476 37.035 89.421h13.55c.003-38.644-15.681-73.688-41.004-99.002-25.313-25.326-60.354-41.006-98.988-41.001-38.642-.005-73.689 15.677-99 41.001-25.329 25.317-41.008 60.359-41.003 99.002-.005 38.635 15.679 73.675 41.003 98.987 25.311 25.321 60.357 41.011 99 41.008 38.633.003 73.674-15.687 98.988-41.008 25.323-25.314 41.007-60.354 41.004-98.987h-6.776z"/>
    <path fill="#000 "
          class="icon-contrast-leftHalf fill-white"
          d="M250.198 382.336c-73.587 0-133.229-59.646-133.229-133.221 0-73.587 59.642-133.229 133.229-133.229"/>
    <path class=""
          fill="#fff"
          d="M250.198 375.559c-34.944-.003-66.515-14.141-89.417-37.034-22.896-22.898-37.033-54.47-37.038-89.409.001-34.943 14.143-66.514 37.038-89.419 22.904-22.896 54.474-37.032 89.417-37.037v-13.55c-38.642 0-73.687 15.679-98.997 41.005-25.329 25.313-41.011 60.357-41.009 99-.001 38.636 15.682 73.679 41.009 98.992 25.31 25.323 60.355 41.006 98.997 41.003v-13.551z"/>
</svg>