<svg xmlns="http://www.w3.org/2000/svg" fill="#fff" xml:space="preserve" width="500" height="500" viewBox="0 0 500 500"><path d="m412.162 435.611 25.543-27.573-6.71-6.216-20.779 22.433.001-287.383h.016l.001-58.877L431 100.386l6.706-6.22-25.632-27.636c-3.532-3.807-9.393-3.793-12.933.028l-25.543 27.573 6.71 6.216 20.779-22.433-.001 50.856h-.016l-.001 295.403-20.766-22.39-6.706 6.219 25.631 27.636c3.534 3.809 9.394 3.796 12.934-.027zM314.649 60.562l3.392 88.63h-8.59c-1.66-15.607-3.92-26.756-6.781-33.445-4.672-10.774-10.888-18.719-18.647-23.83-7.763-5.108-17.97-7.664-30.627-7.664h-43.172v288.739c0 23.228 2.035 37.72 6.104 43.478 5.725 7.804 14.54 11.705 26.445 11.705h10.623v10.313H123.428v-10.313h10.851c12.957 0 22.15-4.829 27.575-14.492 3.313-5.944 4.974-19.51 4.974-40.69V84.252h-36.843c-14.318 0-24.489 1.302-30.515 3.902-7.838 3.531-14.544 10.312-20.117 20.345-5.577 10.034-8.893 23.6-9.945 40.692h-8.589l3.617-88.63h250.213z"/></svg>