<svg xmlns="http://www.w3.org/2000/svg" fill="#fff" xml:space="preserve" width="500" height="500" viewBox="0 0 500 500"><path d="m88.771 412.943 27.573 25.543 6.216-6.71-22.432-20.779 58.957.001v-9.146l-58.877-.001 22.39-20.766-6.219-6.706-27.636 25.631c-3.808 3.533-3.794 9.393.028 12.933z"/><path d="M409.823 399.923 382.25 374.38l-6.216 6.71 22.433 20.779-247.483-.001v9.146l247.403.001-22.39 20.766 6.219 6.706 27.636-25.631c3.807-3.533 3.794-9.393-.029-12.933zM408.53 60.562l4.294 69.509h-10.875c-2.102-12.24-4.963-20.983-8.585-26.229-5.915-8.45-13.784-14.681-23.608-18.689-9.827-4.006-22.749-6.011-38.773-6.011h-54.656v226.447c0 18.217 2.576 29.582 7.727 34.098 7.248 6.12 18.408 9.18 33.48 9.18h13.449v8.088H166.442v-8.088h13.736c16.404 0 28.043-3.787 34.911-11.365 4.194-4.662 6.295-15.301 6.295-31.912V79.141h-46.643c-18.127 0-31.003 1.021-38.632 3.061-9.922 2.77-18.412 8.087-25.468 15.956-7.061 7.869-11.258 18.508-12.591 31.913H87.177l4.579-69.509H408.53z"/></svg>